<svg width="45" height="52" viewBox="0 0 45 52" fill="none" xmlns="http://www.w3.org/2000/svg">
<path d="M15.6475 1.00153L7.86621 10.0762M29.3616 1.00153L37.1429 10.0762" stroke="black" stroke-width="1.5" stroke-miterlimit="10" stroke-linecap="round" stroke-linejoin="round"/>
<path d="M1.00928 15.6263C1.00928 11.0015 3.13732 10.6265 5.78125 10.6265H39.228C41.872 10.6265 44 11.0015 44 15.6263C44 21.0011 41.872 20.6261 39.228 20.6261H5.78125C3.13732 20.6261 1.00928 21.0011 1.00928 15.6263Z" stroke="black" stroke-width="1.5"/>
<path d="M17.6897 31.0007V39.8754M27.5775 31.0007V39.8754M4.23358 21.0011L7.26443 42.6003C7.95228 47.4502 9.60742 51 15.7551 51H28.7168C35.4018 51 36.3906 47.6001 37.1645 42.9003L40.7757 21.0011" stroke="black" stroke-width="1.5" stroke-linecap="round"/>
</svg>
