<svg width="32" height="52" viewBox="0 0 32 52" fill="none" xmlns="http://www.w3.org/2000/svg">
<path d="M15.6491 23.176C15.4341 23.151 15.1762 23.151 14.9397 23.176C12.4725 23.0786 10.1348 21.8681 8.42155 19.801C6.70834 17.7339 5.75421 14.9724 5.76122 12.1014C5.76122 5.97662 10.0173 1.0018 15.3052 1.0018C16.5571 0.97554 17.8012 1.23631 18.9664 1.76923C20.1317 2.30214 21.1953 3.09676 22.0965 4.10772C22.9977 5.11869 23.7189 6.32619 24.2188 7.66129C24.7188 8.99638 24.9877 10.4329 25.0103 11.8889C25.0329 13.3449 24.8087 14.7918 24.3504 16.147C23.8922 17.5022 23.209 18.7391 22.3397 19.7873C21.4704 20.8354 20.4322 21.6741 19.2842 22.2555C18.1362 22.837 16.901 23.1497 15.6491 23.176ZM4.90141 32.4007C-0.300469 36.4505 -0.300469 43.0503 4.90141 47.0751C10.8126 51.675 20.507 51.675 26.4183 47.0751C31.6201 43.0253 31.6201 36.4255 26.4183 32.4007C20.5285 27.8258 10.8341 27.8258 4.90141 32.4007Z" stroke="black" stroke-width="1.5" stroke-linecap="round" stroke-linejoin="round"/>
</svg>
